<?xml version="1.0" encoding="UTF-8" standalone="no"?>
<svg width="31px" height="15px" viewBox="0 0 31 15" version="1.1" xmlns="http://www.w3.org/2000/svg" xmlns:xlink="http://www.w3.org/1999/xlink">
    <!-- Generator: sketchtool 40 (33762) - http://www.bohemiancoding.com/sketch -->
    <title>56AA3DCD-2E66-4725-AB61-9C39CA0D002F</title>
    <desc>Created with sketchtool.</desc>
    <defs></defs>
    <g id="Page-1" stroke="none" stroke-width="1" fill="none" fill-rule="evenodd">
        <g id="First-time-buyer--Cart" transform="translate(-84.000000, -580.000000)">
            <g id="Group-26" transform="translate(32.000000, 460.000000)">
                <g id="Group-25" transform="translate(52.000000, 120.000000)">
                    <g id="Group-21" fill="#F37632">
                        <g id="Group-19">
                            <rect id="Rectangle" x="0" y="0" width="31" height="15" rx="2"></rect>
                        </g>
                    </g>
                    <g id="options" transform="translate(4.121578, 2.847358)" fill="#FFFFFF">
                        <g id="Group-18">
                            <path d="M11.357666,6.57673907 L12.7688346,2.35972827 C12.839222,2.15759298 12.7859427,2.03553061 12.7287529,1.95545769 C12.583579,1.74941641 12.2819888,1.74746341 12.2247991,1.74746341 L4.25294275,1.74551041 L4.03884789,0.738739975 C3.98165817,0.499985977 3.81204421,0.272949966 3.46988347,0.272949966 L1.23019707,0.272949966 C0.997527768,0.272949966 0.871417098,0.381829602 0.871417098,0.599100622 L0.871417098,1.18109401 C0.871417098,1.39055304 0.997527768,1.44426048 1.23801788,1.44426048 L3.13016674,1.44426048 L4.57750665,7.58350951 C4.34630375,7.82763425 4.22214829,8.18259162 4.22214829,8.51216003 C4.22214829,9.24111651 4.80284393,9.91245955 5.54386632,9.91245955 C6.24431822,9.91245955 6.76929055,9.25625224 6.85336433,8.8671174 L9.67374638,8.8671174 C9.75782016,9.25625224 10.1835659,9.92759528 10.9837332,9.92759528 C11.7110692,9.92759528 12.3049624,9.2962887 12.3049624,8.56977347 C12.3049624,7.84667598 11.8635751,7.20609265 10.9910652,7.20609265 C10.6264196,7.20609265 10.1967635,7.40236895 9.99635507,7.69434214 L6.53075564,7.69434214 C6.2804895,7.3032543 5.93686236,7.18314493 5.58932482,7.16947394 L5.54191112,6.91411946 L10.8116752,6.91411946 C11.2105369,6.91411946 11.2872786,6.76910937 11.357666,6.57673907 L11.357666,6.57673907 Z M10.9930204,8.05857626 C11.2662602,8.05857626 11.4896423,8.27975327 11.4896423,8.55414948 C11.4896423,8.82903394 11.2662602,9.05021096 10.9930204,9.05021096 C10.7183142,9.05021096 10.4963985,8.82903394 10.4963985,8.55414948 C10.4963985,8.27975327 10.7183142,8.05857626 10.9930204,8.05857626 L10.9930204,8.05857626 Z M6.03413377,8.55414948 C6.03413377,8.83098694 5.80928529,9.05606995 5.5340903,9.05606995 C5.2554737,9.05606995 5.03013642,8.83098694 5.03013642,8.55414948 C5.03013642,8.27780027 5.2554737,8.05271726 5.5340903,8.05271726 C5.80928529,8.05271726 6.03413377,8.27780027 6.03413377,8.55414948 L6.03413377,8.55414948 Z" id="cart-of-ecommerce"></path>
                            <path d="M19.9304595,4.33214009 L19.9304595,2.81613342 C19.9304595,2.38529555 19.5807046,2.03685584 19.1492601,2.03685584 C18.7148076,2.03685584 18.3680606,2.38575029 18.3680606,2.81613342 L18.3680606,4.33214009 L16.8520539,4.33214009 C16.421216,4.33214009 16.0727763,4.68189501 16.0727763,5.11333956 C16.0727763,5.54779206 16.4216708,5.89453903 16.8520539,5.89453903 L18.3680606,5.89453903 L18.3680606,7.4105457 C18.3680606,7.84138357 18.7178155,8.18982328 19.1492601,8.18982328 C19.5837126,8.18982328 19.9304595,7.84092883 19.9304595,7.4105457 L19.9304595,5.89453903 L21.4464662,5.89453903 C21.8773041,5.89453903 22.2257438,5.54478411 22.2257438,5.11333956 C22.2257438,4.67888706 21.8768493,4.33214009 21.4464662,4.33214009 L19.9304595,4.33214009 Z" id="Combined-Shape"></path>
                        </g>
                    </g>
                </g>
            </g>
        </g>
    </g>
</svg>