<?xml version="1.0" encoding="UTF-8" standalone="no"?>
<svg width="20px" height="12px" viewBox="0 0 20 12" version="1.1" xmlns="http://www.w3.org/2000/svg" xmlns:xlink="http://www.w3.org/1999/xlink">
    <!-- Generator: sketchtool 40 (33762) - http://www.bohemiancoding.com/sketch -->
    <title>A337D191-DE8B-4276-AE5B-6309952BA7C6</title>
    <desc>Created with sketchtool.</desc>
    <defs>
        <filter x="-50%" y="-50%" width="200%" height="200%" filterUnits="objectBoundingBox" id="filter-1">
            <feOffset dx="0" dy="1" in="SourceAlpha" result="shadowOffsetOuter1"></feOffset>
            <feGaussianBlur stdDeviation="1" in="shadowOffsetOuter1" result="shadowBlurOuter1"></feGaussianBlur>
            <feColorMatrix values="0 0 0 0 0.825467687   0 0 0 0 0.825467687   0 0 0 0 0.825467687  0 0 0 0.5 0" type="matrix" in="shadowBlurOuter1" result="shadowMatrixOuter1"></feColorMatrix>
            <feMerge>
                <feMergeNode in="shadowMatrixOuter1"></feMergeNode>
                <feMergeNode in="SourceGraphic"></feMergeNode>
            </feMerge>
        </filter>
        <polygon id="path-2" points="0.001875 7.685625 16 7.685625 16 0.00265625 0.001875 0.00265625"></polygon>
    </defs>
    <g id="Page-1" stroke="none" stroke-width="1" fill="none" fill-rule="evenodd">
        <g id="First-time-buyer--Cart" transform="translate(-106.000000, -264.000000)">
            <g id="Group-17" filter="url(#filter-1)" transform="translate(11.000000, 160.000000)">
                <g id="Group-2" transform="translate(97.000000, 101.897959)">
                    <g id="delivery-truck" transform="translate(0.000000, 3.594228)">
                        <mask id="mask-3" fill="white">
                            <use xlink:href="#path-2"></use>
                        </mask>
                        <g id="Clip-2"></g>
                        <path d="M15.3625625,6.1630625 L14.9468125,6.1630625 C14.8066562,5.65246875 14.3386875,5.276125 13.7841875,5.276125 C13.2297187,5.276125 12.7617812,5.65246875 12.621625,6.1630625 L12.2797812,6.1630625 L12.2797812,2.2673125 L13.6807187,2.2673125 L15.3625625,4.18721875 L15.3625625,6.1630625 L15.3625625,6.1630625 Z M13.7841875,7.05003125 C13.470875,7.05003125 13.216,6.79509375 13.216,6.48178125 C13.216,6.1685 13.470875,5.9135625 13.7841875,5.9135625 C14.0975,5.9135625 14.3524063,6.1685 14.3524063,6.48178125 C14.3524063,6.79509375 14.0975313,7.05003125 13.7841875,7.05003125 L13.7841875,7.05003125 Z M7.20625,7.05003125 C6.8929375,7.05003125 6.6380625,6.79509375 6.6380625,6.48178125 C6.6380625,6.1685 6.8929375,5.9135625 7.20625,5.9135625 C7.5195625,5.9135625 7.77446875,6.1685 7.77446875,6.48178125 C7.77446875,6.79509375 7.5195625,7.05003125 7.20625,7.05003125 L7.20625,7.05003125 Z M11.6423438,6.1630625 L8.36884375,6.1630625 C8.2286875,5.65246875 7.7606875,5.276125 7.20621875,5.276125 C6.65171875,5.276125 6.1838125,5.65246875 6.043625,6.1630625 L5.697125,6.1630625 L5.697125,0.6400625 L11.6423125,0.6400625 L11.6423125,6.1630625 L11.6423438,6.1630625 L11.6423438,6.1630625 Z M12.6216563,6.80053125 C12.7617813,7.311125 13.22975,7.68746875 13.7842188,7.68746875 C14.3387188,7.68746875 14.8066563,7.311125 14.9468438,6.80053125 L15.6812813,6.80053125 C15.8572813,6.80053125 16,6.6578125 16,6.48178125 L16,4.067375 C16,3.990125 15.9719063,3.9155 15.9210313,3.857375 L14.0650625,1.73859375 C14.0045313,1.66953125 13.917125,1.629875 13.8253125,1.629875 L12.2798438,1.629875 L12.2798438,0.321375 C12.2798438,0.14534375 12.137125,0.00265625 11.961125,0.00265625 L5.3784375,0.00265625 C5.2024375,0.00265625 5.0596875,0.14534375 5.0596875,0.321375 L5.0596875,0.7514375 L1.99434375,0.7514375 C1.81834375,0.7514375 1.67559375,0.894125 1.67559375,1.07015625 C1.67559375,1.2461875 1.81834375,1.388875 1.99434375,1.388875 L5.0596875,1.388875 L5.0596875,5.52046875 L3.2145,5.52046875 C3.0385,5.52046875 2.89578125,5.66315625 2.89578125,5.8391875 C2.89578125,6.01521875 3.0385,6.15790625 3.2145,6.15790625 L5.0596875,6.15790625 L5.0596875,6.4818125 C5.0596875,6.657875 5.2024375,6.8005625 5.3784375,6.8005625 L6.04365625,6.8005625 C6.1838125,7.31115625 6.65175,7.6875 7.20625,7.6875 C7.76071875,7.6875 8.2286875,7.31115625 8.368875,6.8005625 L12.6216563,6.8005625 L12.6216563,6.80053125 L12.6216563,6.80053125 Z" id="Fill-1" fill="#9B9B9B" mask="url(#mask-3)"></path>
                        <path d="M2.16440625,5.5204375 L1.99434375,5.5204375 C1.81834375,5.5204375 1.67559375,5.663125 1.67559375,5.83915625 C1.67559375,6.0151875 1.81834375,6.157875 1.99434375,6.157875 L2.16440625,6.157875 C2.34040625,6.157875 2.483125,6.0151875 2.483125,5.83915625 C2.483125,5.663125 2.3404375,5.5204375 2.16440625,5.5204375" id="Fill-3" fill="#9B9B9B" mask="url(#mask-3)"></path>
                        <path d="M4.05309375,3.42240625 C4.05309375,3.246375 3.910375,3.1036875 3.734375,3.1036875 L0.31871875,3.1036875 C0.14271875,3.1036875 0,3.246375 0,3.42240625 C0,3.5984375 0.14271875,3.74115625 0.31871875,3.74115625 L3.734375,3.74115625 C3.910375,3.74115625 4.05309375,3.5984375 4.05309375,3.42240625" id="Fill-4" fill="#9B9B9B" mask="url(#mask-3)"></path>
                    </g>
                </g>
            </g>
        </g>
    </g>
</svg>