<?xml version="1.0" encoding="UTF-8" standalone="no"?>
<svg width="14px" height="14px" viewBox="0 0 14 14" version="1.1" xmlns="http://www.w3.org/2000/svg" xmlns:xlink="http://www.w3.org/1999/xlink">
    <!-- Generator: sketchtool 40 (33762) - http://www.bohemiancoding.com/sketch -->
    <title>C24725BE-9BF3-4991-83DC-504BAE07F9FA</title>
    <desc>Created with sketchtool.</desc>
    <defs>
        <filter x="-50%" y="-50%" width="200%" height="200%" filterUnits="objectBoundingBox" id="filter-1">
            <feOffset dx="0" dy="1" in="SourceAlpha" result="shadowOffsetOuter1"></feOffset>
            <feGaussianBlur stdDeviation="1" in="shadowOffsetOuter1" result="shadowBlurOuter1"></feGaussianBlur>
            <feColorMatrix values="0 0 0 0 0.825467687   0 0 0 0 0.825467687   0 0 0 0 0.825467687  0 0 0 0.5 0" type="matrix" in="shadowBlurOuter1" result="shadowMatrixOuter1"></feColorMatrix>
            <feMerge>
                <feMergeNode in="shadowMatrixOuter1"></feMergeNode>
                <feMergeNode in="SourceGraphic"></feMergeNode>
            </feMerge>
        </filter>
        <polygon id="path-2" points="0.00158244681 9.91666667 9.91666667 9.91666667 9.91666667 0.00105496454 0.00158244681 0.00105496454"></polygon>
    </defs>
    <g id="Page-1" stroke="none" stroke-width="1" fill="none" fill-rule="evenodd">
        <g id="First-time-buyer--Cart" transform="translate(-110.000000, -243.000000)">
            <g id="Group-17" filter="url(#filter-1)" transform="translate(11.000000, 160.000000)">
                <g id="Group-3" transform="translate(101.000000, 82.000000)">
                    <g id="translation" transform="translate(0.000000, 2.000000)">
                        <mask id="mask-3" fill="white">
                            <use xlink:href="#path-2"></use>
                        </mask>
                        <g id="Clip-2"></g>
                        <path d="M9.12544326,4.80008865 L7.50013852,4.80008865 C7.48726795,4.01021033 7.37815824,3.24678524 7.18850199,2.57002549 L8.25438542,2.57002549 C8.34184198,2.57002549 8.4126301,2.49915824 8.4126301,2.41178081 C8.4126301,2.32432425 8.34184198,2.25353613 8.25438542,2.25353613 L7.09155075,2.25353613 C6.92238719,1.74367176 6.70509087,1.29304366 6.44691467,0.931533688 C6.3961445,0.860455452 6.29724158,0.843866135 6.22613697,0.894768174 C6.15505873,0.94545922 6.13857491,1.04436215 6.18937145,1.11544038 C6.41334043,1.42916046 6.60476374,1.81591046 6.75826108,2.25353613 L5.11657801,2.25353613 L5.11657801,0.791223404 C5.11657801,0.70387234 5.0456844,0.632978723 4.95833333,0.632978723 C4.87098227,0.632978723 4.80008865,0.70387234 4.80008865,0.791223404 L4.80008865,2.25353613 L3.15840559,2.25353613 C3.31190293,1.81591046 3.50322074,1.42916046 3.72729521,1.11544038 C3.77809176,1.04436215 3.76160793,0.94545922 3.6905297,0.894768174 C3.61931959,0.843971631 3.52052216,0.860455452 3.46975199,0.931533688 C3.2115758,1.29304366 2.99427948,1.74367176 2.82511591,2.25353613 L1.66228125,2.25353613 C1.57482469,2.25353613 1.50403657,2.32432425 1.50403657,2.41178081 C1.50403657,2.49915824 1.57482469,2.57002549 1.66228125,2.57002549 L2.72816467,2.57002549 C2.53850842,3.24678524 2.42939871,4.01021033 2.41652815,4.80008865 L0.791223404,4.80008865 C0.70387234,4.80008865 0.632978723,4.87098227 0.632978723,4.95833333 C0.632978723,5.0456844 0.70387234,5.11657801 0.791223404,5.11657801 L2.41652815,5.11657801 C2.42939871,5.90645634 2.53850842,6.66988143 2.72816467,7.34664118 L1.66228125,7.34664118 C1.57482469,7.34664118 1.50403657,7.41750842 1.50403657,7.50488586 C1.50403657,7.59234242 1.57482469,7.66313054 1.66228125,7.66313054 L2.82511591,7.66313054 C2.99427948,8.1731004 3.21165492,8.6237285 3.46983112,8.98534397 C3.50074158,9.02859752 3.54937544,9.05167487 3.59882691,9.05167487 C3.63066046,9.05167487 3.66270501,9.04210106 3.6906352,9.02221498 C3.76171343,8.97131294 3.77819725,8.87251551 3.72740071,8.80143728 C3.50332624,8.4877172 3.31190293,8.1008617 3.15840559,7.66313054 L4.80008865,7.66313054 L4.80008865,9.12544326 C4.80008865,9.21279433 4.87098227,9.28368794 4.95833333,9.28368794 C5.0456844,9.28368794 5.11657801,9.21279433 5.11657801,9.12544326 L5.11657801,7.66313054 L6.75826108,7.66313054 C6.60476374,8.1008617 6.41334043,8.4876117 6.18926596,8.80133178 C6.13846941,8.87251551 6.15495324,8.97131294 6.22603147,9.02210949 C6.25385616,9.04199557 6.28600621,9.05156937 6.31783976,9.05156937 C6.36729122,9.05156937 6.41592509,9.02859752 6.44683555,8.98534397 C6.70501175,8.6237285 6.92238719,8.1731004 7.09155075,7.66313054 L8.25438542,7.66313054 C8.34184198,7.66313054 8.4126301,7.59223692 8.4126301,7.50488586 C8.4126301,7.41740293 8.34184198,7.34664118 8.25438542,7.34664118 L7.18850199,7.34664118 C7.37815824,6.66977593 7.48726795,5.90645634 7.50013852,5.11657801 L9.12544326,5.11657801 C9.21279433,5.11657801 9.28368794,5.0456844 9.28368794,4.95833333 C9.28368794,4.87087677 9.21279433,4.80008865 9.12544326,4.80008865 L9.12544326,4.80008865 Z M6.86024978,2.57002549 C7.05671055,3.23855652 7.17025111,4.00390691 7.18354366,4.80008865 L5.11657801,4.80008865 L5.11657801,2.57002549 L6.86024978,2.57002549 Z M3.05641689,2.57002549 L4.80008865,2.57002549 L4.80008865,4.80008865 L2.73312301,4.80008865 C2.74641556,4.00382779 2.85995612,3.23855652 3.05641689,2.57002549 L3.05641689,2.57002549 Z M3.05641689,7.34664118 C2.85995612,6.67811015 2.74641556,5.91275975 2.73312301,5.11657801 L4.80008865,5.11657801 L4.80008865,7.34664118 L3.05641689,7.34664118 Z M6.86024978,7.34664118 L5.11657801,7.34664118 L5.11657801,5.11657801 L7.18354366,5.11657801 C7.17025111,5.91283887 7.05671055,6.67821565 6.86024978,7.34664118 L6.86024978,7.34664118 Z" id="Fill-1" fill="#9B9B9B" mask="url(#mask-3)"></path>
                        <path d="M8.46445523,1.45221144 C7.52785771,0.515745789 6.28281494,0 4.95833333,0 C3.63385173,0 2.38880895,0.515745789 1.45221144,1.45221144 C0.515745789,2.38880895 0,3.63385173 0,4.95833333 C0,5.93470301 0.282493129,6.87623249 0.817914007,7.68681449 L0.211916002,9.50446565 C0.193058511,9.56132824 0.20780164,9.62407225 0.250237589,9.66642908 C0.292594415,9.70886503 0.355232934,9.72360816 0.41220102,9.70464517 L2.22985217,9.09875266 C3.04043418,9.63417354 3.98206915,9.91666667 4.95833333,9.91666667 C6.28281494,9.91666667 7.52785771,9.40092088 8.46445523,8.46445523 C9.40092088,7.52785771 9.91666667,6.28281494 9.91666667,4.95833333 C9.91666667,3.63385173 9.40092088,2.38880895 8.46445523,1.45221144 L8.46445523,1.45221144 Z M4.95833333,9.6001773 C4.01957314,9.6001773 3.11523116,9.32119193 2.34286525,8.79339317 C2.31617465,8.77527416 2.28507957,8.76588497 2.25353613,8.76588497 C2.23676219,8.76588497 2.21985638,8.76857513 2.20347806,8.77392908 L0.612275044,9.30428613 L1.14273759,7.71318861 C1.15840381,7.66621631 1.1511773,7.61470767 1.12327349,7.57380142 C0.595474734,6.801541 0.316489362,5.89709353 0.316489362,4.95833333 C0.316489362,2.39880474 2.39880474,0.316489362 4.95833333,0.316489362 C7.51786192,0.316489362 9.6001773,2.39880474 9.6001773,4.95833333 C9.6001773,7.51786192 7.51786192,9.6001773 4.95833333,9.6001773 L4.95833333,9.6001773 Z" id="Fill-3" fill="#9B9B9B" mask="url(#mask-3)"></path>
                    </g>
                </g>
            </g>
        </g>
    </g>
</svg>